<?xml version="1.0" encoding="utf-8"?>
<!-- Generator: Adobe Illustrator 21.1.0, SVG Export Plug-In . SVG Version: 6.00 Build 0)  -->
<svg version="1.1" xmlns="http://www.w3.org/2000/svg" xmlns:xlink="http://www.w3.org/1999/xlink" x="0px" y="0px"
	 viewBox="0 0 52.5 52.5" style="enable-background:new 0 0 52.5 52.5;" xml:space="preserve">
<style type="text/css">
	.st0{fill:#FFFFFF;}
	.st1{fill:#010101;}
	.st2{fill:none;}
	.st3{clip-path:url(#XMLID_21_);fill:#010101;}
	.st4{fill:#BCBEC0;}
	.st5{fill:#D1D3D4;}
	.st6{fill:#FFFFFF;stroke:#939598;stroke-miterlimit:10;}
	.st7{clip-path:url(#XMLID_24_);fill:#010101;}
	.st8{clip-path:url(#XMLID_33_);fill:#010101;}
	.st9{clip-path:url(#XMLID_34_);fill:#010101;}
	.st10{clip-path:url(#XMLID_211_);fill:#010101;}
	.st11{fill:none;stroke:#ED1C24;stroke-miterlimit:10;}
	.st12{clip-path:url(#XMLID_319_);fill:#010101;}
	.st13{fill:none;stroke:#000000;stroke-miterlimit:10;}
	.st14{fill:none;stroke:#6D6E71;stroke-miterlimit:10;}
	.st15{fill:none;stroke:#6D6E71;stroke-linejoin:round;stroke-miterlimit:10;}
</style>
<g id="Layer_1">
	<path id="XMLID_14_" d="M26.3,0H15.3H0v21.9v8.8v21.9v0l15.3,0h10.9c14.5,0,26.3-11.8,26.3-26.3S40.7,0,26.3,0z M8.8,8.8h6.5
		c3.6,0,6.5,2.9,6.5,6.5s-2.9,6.5-6.5,6.5H8.8V8.8z M15.3,30.7c3.6,0,6.5,2.9,6.5,6.5c0,3.6-2.9,6.5-6.5,6.5H8.8V30.7H15.3z
		 M29.3,43.5c0.9-1.9,1.3-4,1.3-6.3c0-4.3-1.8-8.2-4.6-10.9c2.8-2.8,4.6-6.7,4.6-10.9c0-2.2-0.5-4.4-1.3-6.3
		c8.2,1.4,14.4,8.6,14.4,17.2C43.7,34.9,37.5,42,29.3,43.5z"/>
</g>
<g id="Layer_2">
</g>
</svg>
